<svg xmlns="http://www.w3.org/2000/svg" viewBox="0 0 64 64"><g fill="#a80030"><path d="M37.02 33.81c-1.06.02.2.55 1.58.76.39-.3.73-.6 1.04-.9-.86.22-1.74.22-2.62.14m5.69-1.41a6.74 6.74 0 0 0 1.26-2.82c-.15.7-.53 1.31-.89 1.95-1.98 1.25-.18-.74 0-1.5-2.13 2.69-.3 1.62-.37 2.36m2.1-5.46c.13-1.91-.37-1.3-.54-.58.2.1.35 1.35.54.58M33 .83c.56.1 1.22.18 1.13.31.62-.14.76-.26-1.13-.31m1.13.31-.4.08.37-.03.03-.05"/><path d="M51.78 27.65c.06 1.72-.5 2.55-1.01 4.02l-.92.46c-.75 1.46.07.92-.47 2.08-1.17 1.04-3.55 3.26-4.31 3.46-.56-.01.38-.65.5-.9-1.57 1.07-1.26 1.6-3.66 2.26l-.07-.15c-5.9 2.78-14.12-2.73-14.01-10.25-.07.47-.18.35-.31.55-.3-3.87 1.78-7.76 5.31-9.35a9 9 0 0 1 9.97 1.3c-1.36-1.78-4.06-3.66-7.26-3.49-3.14.05-6.08 2.05-7.06 4.21-1.6 1.01-1.79 3.9-2.49 4.43-.94 6.93 1.77 9.92 6.37 13.44.72.49.2.56.3.93a12.46 12.46 0 0 1-4.08-3.11c.61.9 1.27 1.76 2.12 2.44-1.44-.49-3.36-3.49-3.92-3.6 2.48 4.43 10.06 7.78 14.03 6.12-1.83.07-4.17.04-6.23-.73-.87-.44-2.05-1.37-1.84-1.54 5.42 2.02 11.02 1.53 15.7-2.23 1.2-.92 2.5-2.5 2.88-2.53-.57.86.1.41-.34 1.17 1.19-1.92-.51-.78 1.23-3.31l.64.88c-.23-1.59 1.98-3.52 1.76-6.03.5-.77.56.82.02 2.6.75-1.97.2-2.29.4-3.9.2.54.47 1.12.61 1.7-.48-1.9.5-3.2.75-4.3-.24-.11-.75.83-.87-1.41.02-.97.27-.51.37-.75-.2-.11-.7-.86-1-2.29.22-.33.6.87.9.92-.2-1.13-.54-2-.55-2.88-.88-1.83-.31.25-1.02-.79-.94-2.91.77-.67.89-2 1.42 2.06 2.23 5.24 2.6 6.56-.29-1.6-.74-3.17-1.3-4.67.43.18-.7-3.31.56-1-1.34-4.93-5.74-9.54-9.78-11.7.5.46 1.12 1.02.9 1.11-2.01-1.2-1.66-1.29-1.95-1.8-1.63-.66-1.74.06-2.83 0-3.08-1.63-3.68-1.45-6.52-2.48l.13.6c-2.04-.68-2.38.26-4.6 0-.13-.1.72-.37 1.41-.48-1.98.27-1.88-.38-3.82.08.48-.34.98-.56 1.5-.84-1.62.1-3.86.93-3.17.17-2.63 1.17-7.3 2.82-9.92 5.28l-.08-.55c-1.2 1.44-5.24 4.3-5.56 6.17l-.32.08c-.63 1.05-1.03 2.25-1.53 3.34-.81 1.4-1.2.54-1.08.76-1.6 3.25-2.4 6-3.1 8.24.5.73.02 4.42.2 7.37-.8 14.58 10.24 28.74 22.3 32 1.77.64 4.4.62 6.64.68-2.64-.75-2.98-.4-5.55-1.3-1.86-.87-2.26-1.87-3.58-3l.52.91c-2.57-.91-1.5-1.13-3.6-1.8l.56-.72c-.83-.06-2.2-1.4-2.59-2.15l-.9.04c-1.1-1.36-1.7-2.33-1.65-3.09l-.3.53c-.33-.58-4.03-5.08-2.11-4.03-.36-.33-.83-.53-1.35-1.47l.4-.45c-.93-1.19-1.7-2.71-1.65-3.22.5.67.84.8 1.18.9-2.34-5.79-2.47-.31-4.24-5.9l.37-.02c-.28-.43-.46-.9-.69-1.36l.17-1.63c-1.69-1.94-.47-8.26-.23-11.73.17-1.4 1.4-2.91 2.34-5.26l-.57-.1c1.1-1.91 6.25-7.67 8.63-7.37 1.16-1.45-.23 0-.45-.37 2.54-2.63 3.33-1.86 5.05-2.33 1.85-1.1-1.59.43-.71-.42 3.2-.82 2.26-1.85 6.43-2.27.44.25-1.02.39-1.39.71 2.67-1.3 8.43-1 12.17.73 4.34 2.02 9.22 8.02 9.42 13.67l.21.06c-.1 2.24.35 4.84-.44 7.22l.54-1.13"/><path d="m25.44 35.27-.14.74c.7.95 1.25 1.97 2.14 2.71-.64-1.24-1.12-1.76-2-3.45m1.66-.07c-.38-.4-.6-.9-.84-1.38.23.86.71 1.6 1.16 2.35l-.33-.97m29.16-6.33-.16.39c-.28 2.03-.9 4.03-1.85 5.9a18.53 18.53 0 0 0 2-6.3M33.2.32c.72-.27 1.77-.15 2.53-.32-.99.08-1.98.13-2.95.26l.43.06M8.04 13.7c.16 1.53-1.16 2.13.29 1.12.77-1.74-.3-.48-.3-1.12m-1.69 7.08c.33-1.02.4-1.63.52-2.22-.92 1.17-.42 1.42-.52 2.22"/></g></svg>
