<svg xmlns="http://www.w3.org/2000/svg" viewBox="0 0 64 64"><path fill="#ab2327" d="M63.27 1.57c3.39 3.39-6.02 18.3-7.6 19.89-1.6 1.58-5.63.12-9.02-3.27-3.4-3.39-4.86-7.43-3.27-9.02 1.6-1.59 16.5-11 19.89-7.6M15.7 5.16C10.5 2.22 3.13-1.05.8 1.29c-2.38 2.38 1.01 9.91 3.98 15.1A31.8 31.8 0 0 1 15.69 5.16"/><path fill="#ab2327" d="M58.1 20.29c.47 1.61.38 2.95-.39 3.72-1.8 1.81-6.69-.11-11.08-4.3-.31-.28-.62-.56-.92-.86A19.68 19.68 0 0 1 42.1 14c-1.54-2.76-1.92-5.2-.76-6.37.64-.63 1.65-.8 2.9-.58.8-.51 1.75-1.08 2.8-1.66A30.8 30.8 0 1 0 59.65 17.6c-.54.99-1.07 1.9-1.56 2.68"/></svg>
