<svg xmlns="http://www.w3.org/2000/svg" viewBox="0 0 64 64"><path fill="#ff7f7f" d="M37.41 5.43C35.47 5.69 0 49.23 0 49.23s2.55.72 8.36 1.56c0 0 25.3 2.67 35.67 2.5 29.37-.5.22-38.88-6.55-47.84a.06.06 0 0 0-.04-.01l-.03-.01z"/><path fill="#7f7fff" d="M37.44 5.44c-1.22-.2-29.06 45.32-29.08 45.35L3.8 58.31s27.25 1.22 48.44-1.62c30.16-4.04-6.2-42.56-14.76-51.24a.06.06 0 0 0-.04-.01z"/><path fill="#7f3fbf" d="M37.44 5.43C36.23 5.23 8.36 50.8 8.36 50.8s25.3 2.67 35.67 2.5c29.37-.5.22-38.88-6.55-47.84a.06.06 0 0 0-.04-.02z"/></svg>
