<svg xmlns="http://www.w3.org/2000/svg" viewBox="0 0 64 64"><path fill="#73ba25" d="M32 0A32 32 0 0 0 6.8 12.33a132.7 132.7 0 0 1 7.5 2.22l.1-5.05s0-.1.06-.16c.08-.07.18-.05.18-.05 1.03.15 22.94 3.4 32.17 8.78 1.14.67 1.7 1.38 2.41 2.1 2.55 2.64 5.93 13.62 6.29 15.88.01.09-.1.19-.14.22-.27.2-.55.42-.84.61-2.18 1.47-7.22 5-13.68 4.42-5.8-.52-13.38-3.85-22.52-9.87.9 2.1 1.78 4.22 2.67 6.33 1.32.68 14.1 7.2 20.4 7.07 5.08-.11 10.51-2.59 12.68-3.9 0 0 .48-.28.69-.12.23.17.16.44.1.72-.12.62-.43 1.76-.64 2.3l-.17.44a3.82 3.82 0 0 1-.95 1.67c-1.28 1.16-3.32 2.09-6.52 3.48-4.95 2.16-12.98 3.54-20.43 3.49a79.61 79.61 0 0 1-7.51-.62c-4.65-.52-8.43-.95-10.74.72A32 32 0 0 0 32 64a32 32 0 0 0 32-32A32 32 0 0 0 32 0zm7.14 18.57a9.34 9.34 0 0 0-9.7 9.04 9.4 9.4 0 0 0 9.04 9.7 9.34 9.34 0 0 0 9.7-9.04 9.4 9.4 0 0 0-9.04-9.7zm-.08 2.76a6.55 6.55 0 0 1 4.25 11.32 6.55 6.55 0 1 1-4.25-11.32zm1.07 3.28c-1.6 0-2.9.86-2.9 1.94 0 1.06 1.3 1.93 2.9 1.93 1.6 0 2.9-.87 2.9-1.93 0-1.08-1.3-1.94-2.9-1.94z"/></svg>
