<svg xmlns="http://www.w3.org/2000/svg" viewBox="0 0 64 64"><circle cx="31.03" cy="32.95" r="31.01" fill="#4c5263"/><path fill="#4c5263" d="M19.89 0C15.22 15.25 8.32 29.75.5 43.61l-.48.97.75.39c.65.3 1.52.5 2.68.74 1.17.23 2.61.47 4.23.7 3.23.46 7.17.91 10.99 1.3a745.3 745.3 0 0 0 14.82 1.38l1.22.1-.1-1.22s-1.89-24.63-2.24-28.68l-.02-.22-.1-.19C30 15.3 21.3.42 19.88 0Zm.96 4.36c3.31 5.83 6.17 9.13 9.7 15.5.35 4.08 1.74 25.09 1.89 27.03-1.05-.08-6.57-.53-13.55-1.26a303.16 303.16 0 0 1-10.92-1.29c-1.59-.23-3-.46-4.1-.68-.55-.11-.56-.43-.95-.53C8.64 33.04 17.7 17.23 20.85 4.36Z"/><path fill="#fff" d="M61.39 39.32c-4.53 6.12-12.9 9.38-22.86 10.83-10.4 1.51-22.46 1.06-33.22.15a31.23 31.23 0 0 0 1.67 2.22c10.36.83 21.76 1.17 31.85-.3 8.41-1.22 16-3.7 21.22-8.3a29.92 29.92 0 0 0 1.34-4.6z"/><path fill="#5294e2" d="M38.83 52.22c-10.54 1.49-21.28 1.12-31.85.3 6.8 8.69 18.63 13.06 29.56 10.96a31.21 31.21 0 0 0 23.5-19.56c-6.25 4.44-13.65 7.14-21.22 8.3Z"/><path fill="#fff" d="M32.97 20.84c4.67 9.62 4.68 19.14 1.94 26.17 3.85.02 10.14.45 16.96-2.91-5.6-12.8-18.9-23.26-18.9-23.26ZM20.85 4.36C17.7 17.22 8.64 33.04 2.92 43.13l5.05 1.21c3.19.46 7.1.9 10.92 1.3 6.98.73 12.55 1.28 13.6 1.37-.15-1.94-1.59-23.07-1.94-27.14-3.53-6.38-6.39-9.68-9.7-15.5Zm21.33 22.3c2.9 1.94 5.66 3.7 7.75 5.8a13.13 13.13 0 0 1 3.88 10.67 18.5 18.5 0 0 0 7.75-7.76c-2.52-2.32-6.91-4.62-11.63-6.3a115.03 115.03 0 0 0-7.75-2.42z"/></svg>
