<svg xmlns="http://www.w3.org/2000/svg" xmlns:xlink="http://www.w3.org/1999/xlink" viewBox="0 0 64 64"><circle cx="32" cy="32" r="32" fill="#404552"/><path id="a" fill="#fff" d="M43 37.5c-4.39 0-8.08 3.12-9.25 7.25A7.03 7.03 0 0 1 30.5 49c-.98.55-1.82 1.02-3.08.83-.32-.05-.9-.14-1.48-.48-.93-.53-1.23-1-1.94-2.35.1 1.44-.09 1.97.62 4.5 1.42 5.04 6.85 9 13.25 9 4.75 0 9.15-1.98 11.63-5 .9-1.1 1.59-1.98 2.25-3.5.6-1.39.75-3.16.75-4.75A9.62 9.62 0 0 0 43 37.5z"/><use xlink:href="#a" width="100%" height="100%" transform="rotate(120 32 32)"/><use xlink:href="#a" width="100%" height="100%" transform="rotate(-120 32 32)"/></svg>
