<?xml version="1.0" encoding="UTF-8" standalone="no"?>
<svg
   width="64"
   height="64"
   viewBox="0 0 64 64"
   version="1.1"
   preserveAspectRatio="xMidYMid"
   id="svg18"
   sodipodi:docname="voidlinux.svg"
   inkscape:version="1.2.2 (b0a8486541, 2022-12-01)"
   inkscape:export-filename="void-linux.png"
   inkscape:export-xdpi="96"
   inkscape:export-ydpi="96"
   xmlns:inkscape="http://www.inkscape.org/namespaces/inkscape"
   xmlns:sodipodi="http://sodipodi.sourceforge.net/DTD/sodipodi-0.dtd"
   xmlns="http://www.w3.org/2000/svg"
   xmlns:svg="http://www.w3.org/2000/svg">
  <defs
     id="defs22" />
  <sodipodi:namedview
     id="namedview20"
     pagecolor="#ffffff"
     bordercolor="#000000"
     borderopacity="0.25"
     inkscape:showpageshadow="2"
     inkscape:pageopacity="0.0"
     inkscape:pagecheckerboard="0"
     inkscape:deskcolor="#d1d1d1"
     showgrid="false"
     inkscape:zoom="1.1184834"
     inkscape:cx="60.349576"
     inkscape:cy="105.94703"
     inkscape:window-width="1920"
     inkscape:window-height="1136"
     inkscape:window-x="0"
     inkscape:window-y="0"
     inkscape:window-maximized="1"
     inkscape:current-layer="g16" />
  <g
     id="g16">
    <path
       d="M 31.999999,0 C 25.300509,0.01422589 18.774441,2.1307815 13.341836,6.0512751 l 7.268367,7.2683669 c 3.429265,-2.097736 7.36981,-3.211021 11.389796,-3.217857 12.09406,-2.4e-5 21.898236,9.804153 21.898213,21.898213 -0.0097,4.018554 -1.124969,7.956963 -3.223725,11.383928 l 7.282143,7.282142 C 61.875878,45.230322 63.989733,38.701325 64,31.999998 64,14.326889 49.673108,0 31.999998,0 Z"
       fill="#abc2ab"
       id="path2"
       style="stroke-width:0.304082" />
    <path
       d="m 50.658161,57.948721 -7.268367,-7.268367 c -3.429265,2.097736 -7.36981,3.211025 -11.389795,3.217857 -12.094061,2.4e-5 -21.898237,-9.804153 -21.898213,-21.898213 0.0097,-4.018554 1.124964,-7.956963 3.223724,-11.383928 L 6.043364,13.333928 C 2.124112,18.769672 0.010268,25.298671 0,31.999998 c 0,17.67311 14.326889,31.999998 31.999999,31.999998 6.699489,-0.01423 13.225557,-2.130779 18.658162,-6.051275 z"
       fill="#478061"
       id="path4"
       style="stroke-width:0.304082" />
    <circle
       fill="#abc2ab"
       cx="31.994884"
       cy="31.999998"
       r="10.187755"
       id="circle6"
       style="stroke-width:0.304082" />
  </g>
</svg>
