<svg xmlns="http://www.w3.org/2000/svg" viewBox="0 0 33.87 33.87"><g stroke-width="1.33"><path fill="#51a2da" d="M16.93 0A16.93 16.93 0 0 0 0 16.92v13.1a3.85 3.85 0 0 0 3.85 3.85h13.09a16.93 16.93 0 0 0 0-33.87z"/><path fill="#fafafa" d="M20.37 6.97a5.35 5.35 0 0 0-5.33 5.17V22.8a3.34 3.34 0 0 1-3.44 3.44 3.44 3.44 0 0 1-3.46-3.44c.03-2.1 1.7-3.43 3.66-3.48l2-.02v-2.82l-1.98.01a6.42 6.42 0 0 0-6.5 6.3 6.3 6.3 0 0 0 6.28 6.27 6.32 6.32 0 0 0 6.24-5.71l.02-4.04 2.46-.02c1.9.01 1.89-2.86-.02-2.82l-2.44.01v-4.33c0-1.25 1.19-2.36 2.5-2.36 1.32 0 2.72.66 2.72 2.36l-.02.48a1.41 1.41 0 1 0 2.79.4 6 6 0 0 0 .05-.88c0-3-2.69-5.18-5.53-5.18z"/></g></svg>
